<mxfile host="app.diagrams.net" modified="2024-03-25T12:18:38.235Z" agent="Mozilla/5.0 (Windows NT 10.0; Win64; x64; rv:124.0) Gecko/20100101 Firefox/124.0" etag="cT3w5-D45l5HAZEI9wFA" version="24.1.0" type="github">
  <diagram name="Page-1" id="52a04d89-c75d-2922-d76d-85b35f80e030">
    <mxGraphModel dx="1329" dy="1422" grid="1" gridSize="10" guides="1" tooltips="1" connect="1" arrows="1" fold="1" page="1" pageScale="1" pageWidth="1100" pageHeight="850" background="none" math="0" shadow="0">
      <root>
        <mxCell id="0" />
        <mxCell id="1" parent="0" />
        <mxCell id="21ea969265ad0168-30" value="Database" style="html=1;rounded=0;shadow=0;comic=0;labelBackgroundColor=none;strokeWidth=2;fontFamily=Verdana;fontSize=12;align=center;shape=mxgraph.ios7ui.horLines;" parent="1" vertex="1">
          <mxGeometry x="910" y="107" width="135" height="50" as="geometry" />
        </mxCell>
        <mxCell id="17472293e6e8944d-4" value="Database" style="html=1;rounded=0;shadow=0;comic=0;labelBackgroundColor=none;strokeWidth=2;fontFamily=Verdana;fontSize=12;align=center;shape=mxgraph.ios7ui.horLines;" parent="1" vertex="1">
          <mxGeometry x="910" y="205" width="135" height="50" as="geometry" />
        </mxCell>
        <mxCell id="17472293e6e8944d-29" value="Output" style="whiteSpace=wrap;html=1;rounded=0;shadow=0;comic=0;labelBackgroundColor=none;strokeWidth=1;fontFamily=Verdana;fontSize=12;align=center;" parent="1" vertex="1">
          <mxGeometry x="720" y="57" width="120" height="50" as="geometry" />
        </mxCell>
        <mxCell id="1fdf3b25b50cf41e-27" style="edgeStyle=none;html=1;labelBackgroundColor=none;startFill=0;startSize=8;endFill=1;endSize=8;fontFamily=Verdana;fontSize=12;" parent="1" source="17472293e6e8944d-30" target="1fdf3b25b50cf41e-1" edge="1">
          <mxGeometry relative="1" as="geometry" />
        </mxCell>
        <mxCell id="17472293e6e8944d-30" value="&lt;div&gt;&lt;b&gt;Input&lt;/b&gt;&lt;/div&gt;&lt;div&gt;${&lt;style type=&quot;text/css&quot;&gt;td {border: 1px solid #cccccc;}br {mso-data-placement:same-cell;}&lt;/style&gt;genome_short}.fa&lt;br&gt;&lt;/div&gt;" style="whiteSpace=wrap;html=1;rounded=0;shadow=0;comic=0;labelBackgroundColor=none;strokeWidth=1;fontFamily=Verdana;fontSize=12;align=center;" parent="1" vertex="1">
          <mxGeometry x="50" y="55" width="130" height="50" as="geometry" />
        </mxCell>
        <mxCell id="1fdf3b25b50cf41e-28" style="edgeStyle=none;html=1;labelBackgroundColor=none;startFill=0;startSize=8;endFill=1;endSize=8;fontFamily=Verdana;fontSize=12;" parent="1" source="1fdf3b25b50cf41e-1" target="17472293e6e8944d-29" edge="1">
          <mxGeometry relative="1" as="geometry" />
        </mxCell>
        <mxCell id="1fdf3b25b50cf41e-29" style="edgeStyle=none;html=1;labelBackgroundColor=none;startFill=0;startSize=8;endFill=1;endSize=8;fontFamily=Verdana;fontSize=12;" parent="1" source="1fdf3b25b50cf41e-1" target="1fdf3b25b50cf41e-7" edge="1">
          <mxGeometry relative="1" as="geometry" />
        </mxCell>
        <mxCell id="1fdf3b25b50cf41e-38" style="edgeStyle=orthogonalEdgeStyle;html=1;labelBackgroundColor=none;startFill=0;startSize=8;endFill=1;endSize=8;fontFamily=Verdana;fontSize=12;" parent="1" source="1fdf3b25b50cf41e-1" target="21ea969265ad0168-30" edge="1">
          <mxGeometry relative="1" as="geometry">
            <Array as="points">
              <mxPoint x="540" y="132" />
            </Array>
          </mxGeometry>
        </mxCell>
        <mxCell id="1fdf3b25b50cf41e-1" value="1.5" style="swimlane;html=1;fontStyle=0;childLayout=stackLayout;horizontal=1;startSize=26;fillColor=#e0e0e0;horizontalStack=0;resizeParent=1;resizeLast=0;collapsible=1;marginBottom=0;swimlaneFillColor=#ffffff;align=center;rounded=1;shadow=0;comic=0;labelBackgroundColor=none;strokeWidth=1;fontFamily=Verdana;fontSize=12" parent="1" vertex="1">
          <mxGeometry x="430" y="54" width="140" height="52" as="geometry" />
        </mxCell>
        <mxCell id="1fdf3b25b50cf41e-2" value="Row 1" style="text;html=1;strokeColor=none;fillColor=none;spacingLeft=4;spacingRight=4;whiteSpace=wrap;overflow=hidden;rotatable=0;points=[[0,0.5],[1,0.5]];portConstraint=eastwest;align=center;" parent="1fdf3b25b50cf41e-1" vertex="1">
          <mxGeometry y="26" width="140" height="26" as="geometry" />
        </mxCell>
        <mxCell id="1fdf3b25b50cf41e-47" style="edgeStyle=orthogonalEdgeStyle;html=1;labelBackgroundColor=none;startFill=0;startSize=8;endFill=1;endSize=8;fontFamily=Verdana;fontSize=12;" parent="1" source="1fdf3b25b50cf41e-6" target="1fdf3b25b50cf41e-21" edge="1">
          <mxGeometry relative="1" as="geometry">
            <Array as="points">
              <mxPoint x="978" y="466" />
            </Array>
          </mxGeometry>
        </mxCell>
        <mxCell id="1fdf3b25b50cf41e-6" value="Database" style="html=1;rounded=0;shadow=0;comic=0;labelBackgroundColor=none;strokeWidth=2;fontFamily=Verdana;fontSize=12;align=center;shape=mxgraph.ios7ui.horLines;" parent="1" vertex="1">
          <mxGeometry x="910" y="380" width="135" height="50" as="geometry" />
        </mxCell>
        <mxCell id="1fdf3b25b50cf41e-35" style="edgeStyle=none;html=1;labelBackgroundColor=none;startFill=0;startSize=8;endFill=1;endSize=8;fontFamily=Verdana;fontSize=12;" parent="1" source="1fdf3b25b50cf41e-7" target="1fdf3b25b50cf41e-34" edge="1">
          <mxGeometry relative="1" as="geometry">
            <mxPoint x="570.0001622472457" y="179.9302333127779" as="targetPoint" />
          </mxGeometry>
        </mxCell>
        <mxCell id="1fdf3b25b50cf41e-39" style="edgeStyle=none;html=1;labelBackgroundColor=none;startFill=0;startSize=8;endFill=1;endSize=8;fontFamily=Verdana;fontSize=12;" parent="1" source="1fdf3b25b50cf41e-7" target="1fdf3b25b50cf41e-26" edge="1">
          <mxGeometry relative="1" as="geometry" />
        </mxCell>
        <mxCell id="1fdf3b25b50cf41e-7" value="1.6" style="swimlane;html=1;fontStyle=0;childLayout=stackLayout;horizontal=1;startSize=26;fillColor=#e0e0e0;horizontalStack=0;resizeParent=1;resizeLast=0;collapsible=1;marginBottom=0;swimlaneFillColor=#ffffff;align=center;rounded=1;shadow=0;comic=0;labelBackgroundColor=none;strokeWidth=1;fontFamily=Verdana;fontSize=12" parent="1" vertex="1">
          <mxGeometry x="430" y="154" width="140" height="52" as="geometry" />
        </mxCell>
        <mxCell id="1fdf3b25b50cf41e-8" value="Row 1" style="text;html=1;strokeColor=none;fillColor=none;spacingLeft=4;spacingRight=4;whiteSpace=wrap;overflow=hidden;rotatable=0;points=[[0,0.5],[1,0.5]];portConstraint=eastwest;align=center;" parent="1fdf3b25b50cf41e-7" vertex="1">
          <mxGeometry y="26" width="140" height="26" as="geometry" />
        </mxCell>
        <mxCell id="1fdf3b25b50cf41e-40" style="edgeStyle=none;html=1;labelBackgroundColor=none;startFill=0;startSize=8;endFill=1;endSize=8;fontFamily=Verdana;fontSize=12;" parent="1" source="1fdf3b25b50cf41e-9" target="1fdf3b25b50cf41e-7" edge="1">
          <mxGeometry relative="1" as="geometry" />
        </mxCell>
        <mxCell id="1fdf3b25b50cf41e-9" value="1.2" style="swimlane;html=1;fontStyle=0;childLayout=stackLayout;horizontal=1;startSize=26;fillColor=#e0e0e0;horizontalStack=0;resizeParent=1;resizeLast=0;collapsible=1;marginBottom=0;swimlaneFillColor=#ffffff;align=center;rounded=1;shadow=0;comic=0;labelBackgroundColor=none;strokeWidth=1;fontFamily=Verdana;fontSize=12" parent="1" vertex="1">
          <mxGeometry x="250" y="153" width="140" height="52" as="geometry" />
        </mxCell>
        <mxCell id="1fdf3b25b50cf41e-10" value="Row 1" style="text;html=1;strokeColor=none;fillColor=none;spacingLeft=4;spacingRight=4;whiteSpace=wrap;overflow=hidden;rotatable=0;points=[[0,0.5],[1,0.5]];portConstraint=eastwest;align=center;" parent="1fdf3b25b50cf41e-9" vertex="1">
          <mxGeometry y="26" width="140" height="26" as="geometry" />
        </mxCell>
        <mxCell id="1fdf3b25b50cf41e-31" style="edgeStyle=orthogonalEdgeStyle;html=1;labelBackgroundColor=none;startFill=0;startSize=8;endFill=1;endSize=8;fontFamily=Verdana;fontSize=12;" parent="1" source="1fdf3b25b50cf41e-11" target="17472293e6e8944d-4" edge="1">
          <mxGeometry relative="1" as="geometry">
            <Array as="points">
              <mxPoint x="810" y="230" />
            </Array>
          </mxGeometry>
        </mxCell>
        <mxCell id="1fdf3b25b50cf41e-11" value="1.9" style="swimlane;html=1;fontStyle=0;childLayout=stackLayout;horizontal=1;startSize=26;fillColor=#e0e0e0;horizontalStack=0;resizeParent=1;resizeLast=0;collapsible=1;marginBottom=0;swimlaneFillColor=#ffffff;align=center;rounded=1;shadow=0;comic=0;labelBackgroundColor=none;strokeWidth=1;fontFamily=Verdana;fontSize=12" parent="1" vertex="1">
          <mxGeometry x="740" y="153" width="140" height="52" as="geometry" />
        </mxCell>
        <mxCell id="1fdf3b25b50cf41e-12" value="Row 1" style="text;html=1;strokeColor=none;fillColor=none;spacingLeft=4;spacingRight=4;whiteSpace=wrap;overflow=hidden;rotatable=0;points=[[0,0.5],[1,0.5]];portConstraint=eastwest;align=center;" parent="1fdf3b25b50cf41e-11" vertex="1">
          <mxGeometry y="26" width="140" height="26" as="geometry" />
        </mxCell>
        <mxCell id="1fdf3b25b50cf41e-43" style="edgeStyle=none;html=1;labelBackgroundColor=none;startFill=0;startSize=8;endFill=1;endSize=8;fontFamily=Verdana;fontSize=12;" parent="1" source="1fdf3b25b50cf41e-13" target="1fdf3b25b50cf41e-19" edge="1">
          <mxGeometry relative="1" as="geometry" />
        </mxCell>
        <mxCell id="1fdf3b25b50cf41e-13" value="1.3" style="swimlane;html=1;fontStyle=0;childLayout=stackLayout;horizontal=1;startSize=26;fillColor=#e0e0e0;horizontalStack=0;resizeParent=1;resizeLast=0;collapsible=1;marginBottom=0;swimlaneFillColor=#ffffff;align=center;rounded=1;shadow=0;comic=0;labelBackgroundColor=none;strokeWidth=1;fontFamily=Verdana;fontSize=12" parent="1" vertex="1">
          <mxGeometry x="250" y="305" width="140" height="52" as="geometry" />
        </mxCell>
        <mxCell id="1fdf3b25b50cf41e-14" value="Row 1" style="text;html=1;strokeColor=none;fillColor=none;spacingLeft=4;spacingRight=4;whiteSpace=wrap;overflow=hidden;rotatable=0;points=[[0,0.5],[1,0.5]];portConstraint=eastwest;align=center;" parent="1fdf3b25b50cf41e-13" vertex="1">
          <mxGeometry y="26" width="140" height="26" as="geometry" />
        </mxCell>
        <mxCell id="1fdf3b25b50cf41e-46" style="edgeStyle=orthogonalEdgeStyle;html=1;labelBackgroundColor=none;startFill=0;startSize=8;endFill=1;endSize=8;fontFamily=Verdana;fontSize=12;" parent="1" source="1fdf3b25b50cf41e-15" target="1fdf3b25b50cf41e-6" edge="1">
          <mxGeometry relative="1" as="geometry">
            <Array as="points">
              <mxPoint x="650" y="400" />
            </Array>
          </mxGeometry>
        </mxCell>
        <mxCell id="1fdf3b25b50cf41e-15" value="1.8" style="swimlane;html=1;fontStyle=0;childLayout=stackLayout;horizontal=1;startSize=26;fillColor=#e0e0e0;horizontalStack=0;resizeParent=1;resizeLast=0;collapsible=1;marginBottom=0;swimlaneFillColor=#ffffff;align=center;rounded=1;shadow=0;comic=0;labelBackgroundColor=none;strokeWidth=1;fontFamily=Verdana;fontSize=12" parent="1" vertex="1">
          <mxGeometry x="580" y="304" width="140" height="52" as="geometry" />
        </mxCell>
        <mxCell id="1fdf3b25b50cf41e-16" value="Row 1" style="text;html=1;strokeColor=none;fillColor=none;spacingLeft=4;spacingRight=4;whiteSpace=wrap;overflow=hidden;rotatable=0;points=[[0,0.5],[1,0.5]];portConstraint=eastwest;align=center;" parent="1fdf3b25b50cf41e-15" vertex="1">
          <mxGeometry y="26" width="140" height="26" as="geometry" />
        </mxCell>
        <mxCell id="1fdf3b25b50cf41e-42" style="edgeStyle=none;html=1;labelBackgroundColor=none;startFill=0;startSize=8;endFill=1;endSize=8;fontFamily=Verdana;fontSize=12;" parent="1" source="1fdf3b25b50cf41e-17" target="1fdf3b25b50cf41e-25" edge="1">
          <mxGeometry relative="1" as="geometry" />
        </mxCell>
        <mxCell id="1fdf3b25b50cf41e-17" value="1.1" style="swimlane;html=1;fontStyle=0;childLayout=stackLayout;horizontal=1;startSize=26;fillColor=#e0e0e0;horizontalStack=0;resizeParent=1;resizeLast=0;collapsible=1;marginBottom=0;swimlaneFillColor=#ffffff;align=center;rounded=1;shadow=0;comic=0;labelBackgroundColor=none;strokeWidth=1;fontFamily=Verdana;fontSize=12" parent="1" vertex="1">
          <mxGeometry x="50" y="440" width="140" height="52" as="geometry" />
        </mxCell>
        <mxCell id="1fdf3b25b50cf41e-18" value="Row 1" style="text;html=1;strokeColor=none;fillColor=none;spacingLeft=4;spacingRight=4;whiteSpace=wrap;overflow=hidden;rotatable=0;points=[[0,0.5],[1,0.5]];portConstraint=eastwest;align=center;" parent="1fdf3b25b50cf41e-17" vertex="1">
          <mxGeometry y="26" width="140" height="26" as="geometry" />
        </mxCell>
        <mxCell id="1fdf3b25b50cf41e-44" style="edgeStyle=none;html=1;labelBackgroundColor=none;startFill=0;startSize=8;endFill=1;endSize=8;fontFamily=Verdana;fontSize=12;" parent="1" source="1fdf3b25b50cf41e-19" target="1fdf3b25b50cf41e-21" edge="1">
          <mxGeometry relative="1" as="geometry" />
        </mxCell>
        <mxCell id="1fdf3b25b50cf41e-48" style="edgeStyle=none;html=1;labelBackgroundColor=none;startFill=0;startSize=8;endFill=1;endSize=8;fontFamily=Verdana;fontSize=12;" parent="1" source="1fdf3b25b50cf41e-19" target="1fdf3b25b50cf41e-17" edge="1">
          <mxGeometry relative="1" as="geometry" />
        </mxCell>
        <mxCell id="1fdf3b25b50cf41e-19" value="1.4" style="swimlane;html=1;fontStyle=0;childLayout=stackLayout;horizontal=1;startSize=26;fillColor=#e0e0e0;horizontalStack=0;resizeParent=1;resizeLast=0;collapsible=1;marginBottom=0;swimlaneFillColor=#ffffff;align=center;rounded=1;shadow=0;comic=0;labelBackgroundColor=none;strokeWidth=1;fontFamily=Verdana;fontSize=12" parent="1" vertex="1">
          <mxGeometry x="250" y="440" width="140" height="52" as="geometry" />
        </mxCell>
        <mxCell id="1fdf3b25b50cf41e-20" value="Row 1" style="text;html=1;strokeColor=none;fillColor=none;spacingLeft=4;spacingRight=4;whiteSpace=wrap;overflow=hidden;rotatable=0;points=[[0,0.5],[1,0.5]];portConstraint=eastwest;align=center;" parent="1fdf3b25b50cf41e-19" vertex="1">
          <mxGeometry y="26" width="140" height="26" as="geometry" />
        </mxCell>
        <mxCell id="1fdf3b25b50cf41e-45" style="edgeStyle=none;html=1;labelBackgroundColor=none;startFill=0;startSize=8;endFill=1;endSize=8;fontFamily=Verdana;fontSize=12;" parent="1" source="1fdf3b25b50cf41e-21" target="1fdf3b25b50cf41e-26" edge="1">
          <mxGeometry relative="1" as="geometry" />
        </mxCell>
        <mxCell id="1fdf3b25b50cf41e-21" value="1.7" style="swimlane;html=1;fontStyle=0;childLayout=stackLayout;horizontal=1;startSize=26;fillColor=#e0e0e0;horizontalStack=0;resizeParent=1;resizeLast=0;collapsible=1;marginBottom=0;swimlaneFillColor=#ffffff;align=center;rounded=1;shadow=0;comic=0;labelBackgroundColor=none;strokeWidth=1;fontFamily=Verdana;fontSize=12" parent="1" vertex="1">
          <mxGeometry x="430" y="440" width="140" height="52" as="geometry" />
        </mxCell>
        <mxCell id="1fdf3b25b50cf41e-22" value="Row 1" style="text;html=1;strokeColor=none;fillColor=none;spacingLeft=4;spacingRight=4;whiteSpace=wrap;overflow=hidden;rotatable=0;points=[[0,0.5],[1,0.5]];portConstraint=eastwest;align=center;" parent="1fdf3b25b50cf41e-21" vertex="1">
          <mxGeometry y="26" width="140" height="26" as="geometry" />
        </mxCell>
        <mxCell id="1fdf3b25b50cf41e-41" style="edgeStyle=orthogonalEdgeStyle;html=1;labelBackgroundColor=none;startFill=0;startSize=8;endFill=1;endSize=8;fontFamily=Verdana;fontSize=12;" parent="1" source="1fdf3b25b50cf41e-25" target="1fdf3b25b50cf41e-9" edge="1">
          <mxGeometry relative="1" as="geometry">
            <Array as="points">
              <mxPoint x="120" y="179" />
            </Array>
          </mxGeometry>
        </mxCell>
        <mxCell id="1fdf3b25b50cf41e-25" value="Object" style="whiteSpace=wrap;html=1;rounded=0;shadow=0;comic=0;labelBackgroundColor=none;strokeWidth=1;fontFamily=Verdana;fontSize=12;align=center;" parent="1" vertex="1">
          <mxGeometry x="60" y="307" width="120" height="50" as="geometry" />
        </mxCell>
        <mxCell id="1fdf3b25b50cf41e-26" value="Object" style="whiteSpace=wrap;html=1;rounded=0;shadow=0;comic=0;labelBackgroundColor=none;strokeWidth=1;fontFamily=Verdana;fontSize=12;align=center;" parent="1" vertex="1">
          <mxGeometry x="440" y="307" width="120" height="50" as="geometry" />
        </mxCell>
        <mxCell id="1fdf3b25b50cf41e-36" style="edgeStyle=none;html=1;labelBackgroundColor=none;startFill=0;startSize=8;endFill=1;endSize=8;fontFamily=Verdana;fontSize=12;" parent="1" source="1fdf3b25b50cf41e-34" target="1fdf3b25b50cf41e-15" edge="1">
          <mxGeometry relative="1" as="geometry" />
        </mxCell>
        <mxCell id="1fdf3b25b50cf41e-37" style="edgeStyle=none;html=1;labelBackgroundColor=none;startFill=0;startSize=8;endFill=1;endSize=8;fontFamily=Verdana;fontSize=12;" parent="1" source="1fdf3b25b50cf41e-34" target="1fdf3b25b50cf41e-11" edge="1">
          <mxGeometry relative="1" as="geometry" />
        </mxCell>
        <mxCell id="1fdf3b25b50cf41e-34" value="" style="ellipse;whiteSpace=wrap;html=1;rounded=1;shadow=0;comic=0;labelBackgroundColor=none;strokeWidth=1;fontFamily=Verdana;fontSize=12;align=center;" parent="1" vertex="1">
          <mxGeometry x="635" y="165" width="30" height="30" as="geometry" />
        </mxCell>
        <mxCell id="AjI9yF0b8auwYNTap7u0-3" value="" style="edgeStyle=orthogonalEdgeStyle;rounded=0;orthogonalLoop=1;jettySize=auto;html=1;" edge="1" parent="1" source="AjI9yF0b8auwYNTap7u0-1" target="17472293e6e8944d-30">
          <mxGeometry relative="1" as="geometry" />
        </mxCell>
        <mxCell id="AjI9yF0b8auwYNTap7u0-14" value="" style="edgeStyle=orthogonalEdgeStyle;rounded=0;orthogonalLoop=1;jettySize=auto;html=1;" edge="1" parent="1" source="AjI9yF0b8auwYNTap7u0-1" target="AjI9yF0b8auwYNTap7u0-13">
          <mxGeometry relative="1" as="geometry" />
        </mxCell>
        <mxCell id="AjI9yF0b8auwYNTap7u0-1" value="&lt;div&gt;&lt;b&gt;Samples&amp;nbsp;&lt;/b&gt;&lt;/div&gt;&lt;div&gt;&lt;b&gt;siluriformes genomes&lt;br&gt;&lt;/b&gt;&lt;/div&gt;&lt;div&gt;GenBank accession numbers (GCA*) &lt;br&gt;&lt;/div&gt;" style="whiteSpace=wrap;html=1;fontFamily=Verdana;rounded=0;shadow=0;comic=0;labelBackgroundColor=none;strokeWidth=1;" vertex="1" parent="1">
          <mxGeometry x="40" y="-80" width="150" height="60" as="geometry" />
        </mxCell>
        <mxCell id="AjI9yF0b8auwYNTap7u0-15" value="" style="edgeStyle=orthogonalEdgeStyle;rounded=0;orthogonalLoop=1;jettySize=auto;html=1;entryX=0;entryY=0.5;entryDx=0;entryDy=0;" edge="1" parent="1" source="AjI9yF0b8auwYNTap7u0-12" target="1fdf3b25b50cf41e-1">
          <mxGeometry relative="1" as="geometry">
            <mxPoint x="440" y="40" as="targetPoint" />
          </mxGeometry>
        </mxCell>
        <mxCell id="AjI9yF0b8auwYNTap7u0-23" value="" style="edgeStyle=orthogonalEdgeStyle;rounded=0;orthogonalLoop=1;jettySize=auto;html=1;" edge="1" parent="1" source="AjI9yF0b8auwYNTap7u0-12" target="AjI9yF0b8auwYNTap7u0-21">
          <mxGeometry relative="1" as="geometry" />
        </mxCell>
        <mxCell id="AjI9yF0b8auwYNTap7u0-12" value="&lt;div&gt;1.1 Filter assemblies&amp;nbsp;&lt;/div&gt;&lt;div&gt;for chromosomes&lt;/div&gt;" style="swimlane;html=1;fontStyle=0;childLayout=stackLayout;horizontal=1;startSize=40;fillColor=#e0e0e0;horizontalStack=0;resizeParent=1;resizeLast=0;collapsible=1;marginBottom=0;swimlaneFillColor=#ffffff;align=center;rounded=1;shadow=0;comic=0;labelBackgroundColor=none;strokeWidth=1;fontFamily=Verdana;fontSize=12" vertex="1" parent="1">
          <mxGeometry x="240" y="-95" width="340" height="90" as="geometry" />
        </mxCell>
        <mxCell id="AjI9yF0b8auwYNTap7u0-13" value="&lt;div&gt;Remove MT genomes&lt;/div&gt;&lt;div&gt;Remove unplaced scaffolds&lt;/div&gt;&lt;div&gt;Rename chromosomes sorted by lengths from 1 to maxlength&lt;/div&gt;" style="text;html=1;strokeColor=none;fillColor=none;spacingLeft=4;spacingRight=4;whiteSpace=wrap;overflow=hidden;rotatable=0;points=[[0,0.5],[1,0.5]];portConstraint=eastwest;align=center;" vertex="1" parent="AjI9yF0b8auwYNTap7u0-12">
          <mxGeometry y="40" width="340" height="50" as="geometry" />
        </mxCell>
        <mxCell id="AjI9yF0b8auwYNTap7u0-21" value="&lt;div&gt;&lt;b&gt;Karyotype TSV files&lt;/b&gt;&lt;/div&gt;&lt;div&gt;&amp;nbsp;by species and containing&amp;nbsp;&lt;/div&gt;&lt;div&gt;only chromosome metadata&lt;br&gt;&lt;/div&gt;" style="html=1;rounded=0;shadow=0;comic=0;labelBackgroundColor=none;strokeWidth=2;fontFamily=Verdana;fontSize=12;align=center;shape=mxgraph.ios7ui.horLines;" vertex="1" parent="1">
          <mxGeometry x="840" y="-50" width="205" height="50" as="geometry" />
        </mxCell>
      </root>
    </mxGraphModel>
  </diagram>
</mxfile>
